<mxfile host="app.diagrams.net" modified="2022-06-22T11:47:15.637Z" agent="5.0 (Windows NT 10.0; Win64; x64) AppleWebKit/537.36 (KHTML, like Gecko) Chrome/102.0.5005.124 Safari/537.36 Edg/102.0.1245.44" etag="GYxcnr7zJ1WBq8BM6-QY" version="20.0.2" type="github" pages="11">
  <diagram id="8ZpGdS8E5mvSgYeWT1kg" name="Attendee vote">
    <mxGraphModel dx="1422" dy="1862" grid="1" gridSize="10" guides="1" tooltips="1" connect="1" arrows="1" fold="1" page="1" pageScale="1" pageWidth="850" pageHeight="1100" math="0" shadow="0">
      <root>
        <mxCell id="0" />
        <mxCell id="1" parent="0" />
        <mxCell id="4HNazt9gp3kllfo0AfHA-1" value="" style="edgeStyle=orthogonalEdgeStyle;rounded=0;orthogonalLoop=1;jettySize=auto;html=1;endArrow=block;endFill=0;exitX=1;exitY=0.5;exitDx=0;exitDy=0;" edge="1" parent="1" target="4HNazt9gp3kllfo0AfHA-10" source="fSzQ4WD5OdwEj91SUIc7-1">
          <mxGeometry relative="1" as="geometry">
            <mxPoint x="140" y="110" as="sourcePoint" />
          </mxGeometry>
        </mxCell>
        <mxCell id="4HNazt9gp3kllfo0AfHA-2" style="edgeStyle=orthogonalEdgeStyle;rounded=0;orthogonalLoop=1;jettySize=auto;html=1;exitX=1;exitY=0.5;exitDx=0;exitDy=0;entryX=0.5;entryY=1;entryDx=0;entryDy=0;endArrow=block;endFill=0;" edge="1" parent="1" source="4HNazt9gp3kllfo0AfHA-3" target="4HNazt9gp3kllfo0AfHA-14">
          <mxGeometry relative="1" as="geometry" />
        </mxCell>
        <mxCell id="4HNazt9gp3kllfo0AfHA-3" value="Sign up" style="rounded=1;whiteSpace=wrap;html=1;" vertex="1" parent="1">
          <mxGeometry x="217.5" y="210" width="130" height="60" as="geometry" />
        </mxCell>
        <mxCell id="4HNazt9gp3kllfo0AfHA-6" value="" style="edgeStyle=orthogonalEdgeStyle;rounded=0;orthogonalLoop=1;jettySize=auto;html=1;endArrow=block;endFill=0;" edge="1" parent="1" source="4HNazt9gp3kllfo0AfHA-7" target="4HNazt9gp3kllfo0AfHA-19">
          <mxGeometry relative="1" as="geometry" />
        </mxCell>
        <mxCell id="4HNazt9gp3kllfo0AfHA-7" value="Choose poster" style="whiteSpace=wrap;html=1;rounded=1;" vertex="1" parent="1">
          <mxGeometry x="640" y="-80" width="120" height="60" as="geometry" />
        </mxCell>
        <mxCell id="4HNazt9gp3kllfo0AfHA-8" value="No" style="edgeStyle=orthogonalEdgeStyle;rounded=0;orthogonalLoop=1;jettySize=auto;html=1;exitX=0.5;exitY=1;exitDx=0;exitDy=0;entryX=0.5;entryY=0;entryDx=0;entryDy=0;endArrow=block;endFill=0;" edge="1" parent="1" source="4HNazt9gp3kllfo0AfHA-10" target="4HNazt9gp3kllfo0AfHA-3">
          <mxGeometry relative="1" as="geometry" />
        </mxCell>
        <mxCell id="4HNazt9gp3kllfo0AfHA-9" value="Yes" style="edgeStyle=orthogonalEdgeStyle;rounded=0;orthogonalLoop=1;jettySize=auto;html=1;endArrow=block;endFill=0;" edge="1" parent="1" source="4HNazt9gp3kllfo0AfHA-10" target="4HNazt9gp3kllfo0AfHA-12">
          <mxGeometry relative="1" as="geometry" />
        </mxCell>
        <mxCell id="4HNazt9gp3kllfo0AfHA-10" value="user have account ?" style="rhombus;whiteSpace=wrap;html=1;rounded=1;glass=0;strokeWidth=1;shadow=0;" vertex="1" parent="1">
          <mxGeometry x="240" y="70" width="85" height="80" as="geometry" />
        </mxCell>
        <mxCell id="4HNazt9gp3kllfo0AfHA-11" value="" style="edgeStyle=orthogonalEdgeStyle;rounded=0;orthogonalLoop=1;jettySize=auto;html=1;endArrow=block;endFill=0;" edge="1" parent="1" source="4HNazt9gp3kllfo0AfHA-12" target="4HNazt9gp3kllfo0AfHA-14">
          <mxGeometry relative="1" as="geometry" />
        </mxCell>
        <mxCell id="4HNazt9gp3kllfo0AfHA-12" value="Log in" style="whiteSpace=wrap;html=1;rounded=1;glass=0;strokeWidth=1;shadow=0;" vertex="1" parent="1">
          <mxGeometry x="222.5" y="-80" width="120" height="60" as="geometry" />
        </mxCell>
        <mxCell id="4HNazt9gp3kllfo0AfHA-13" value="Vote" style="edgeStyle=orthogonalEdgeStyle;rounded=0;orthogonalLoop=1;jettySize=auto;html=1;endArrow=block;endFill=0;" edge="1" parent="1" source="4HNazt9gp3kllfo0AfHA-14">
          <mxGeometry relative="1" as="geometry">
            <mxPoint x="642.5" y="-50" as="targetPoint" />
          </mxGeometry>
        </mxCell>
        <mxCell id="4HNazt9gp3kllfo0AfHA-14" value="View competition" style="whiteSpace=wrap;html=1;rounded=1;glass=0;strokeWidth=1;shadow=0;" vertex="1" parent="1">
          <mxGeometry x="422.5" y="-80" width="120" height="60" as="geometry" />
        </mxCell>
        <mxCell id="4HNazt9gp3kllfo0AfHA-19" value="Vote" style="whiteSpace=wrap;html=1;rounded=1;" vertex="1" parent="1">
          <mxGeometry x="840" y="-80" width="120" height="60" as="geometry" />
        </mxCell>
        <mxCell id="fSzQ4WD5OdwEj91SUIc7-1" value="View app landing page" style="rounded=1;whiteSpace=wrap;html=1;fontSize=12;glass=0;strokeWidth=1;shadow=0;" vertex="1" parent="1">
          <mxGeometry x="10" y="80" width="130" height="60" as="geometry" />
        </mxCell>
        <mxCell id="5T_hcANzM7O8TuAdDKVx-1" value="Attendee vote" style="rounded=0;whiteSpace=wrap;html=1;" vertex="1" parent="1">
          <mxGeometry x="15" y="-210" width="120" height="60" as="geometry" />
        </mxCell>
      </root>
    </mxGraphModel>
  </diagram>
  <diagram id="UyaYRM_-LQyAhqF2dSQ7" name="Attendee submit">
    <mxGraphModel dx="1422" dy="1862" grid="1" gridSize="10" guides="1" tooltips="1" connect="1" arrows="1" fold="1" page="1" pageScale="1" pageWidth="850" pageHeight="1100" math="0" shadow="0">
      <root>
        <mxCell id="0" />
        <mxCell id="1" parent="0" />
        <mxCell id="giDGmajodWaBDiLsKYcz-1" value="" style="edgeStyle=orthogonalEdgeStyle;rounded=0;orthogonalLoop=1;jettySize=auto;html=1;endArrow=block;endFill=0;" edge="1" parent="1" source="giDGmajodWaBDiLsKYcz-2" target="giDGmajodWaBDiLsKYcz-11">
          <mxGeometry relative="1" as="geometry" />
        </mxCell>
        <mxCell id="giDGmajodWaBDiLsKYcz-2" value="View app landing page" style="rounded=1;whiteSpace=wrap;html=1;fontSize=12;glass=0;strokeWidth=1;shadow=0;" vertex="1" parent="1">
          <mxGeometry x="10" y="80" width="130" height="60" as="geometry" />
        </mxCell>
        <mxCell id="giDGmajodWaBDiLsKYcz-3" style="edgeStyle=orthogonalEdgeStyle;rounded=0;orthogonalLoop=1;jettySize=auto;html=1;exitX=1;exitY=0.5;exitDx=0;exitDy=0;entryX=0.5;entryY=1;entryDx=0;entryDy=0;endArrow=block;endFill=0;" edge="1" parent="1" source="giDGmajodWaBDiLsKYcz-4" target="giDGmajodWaBDiLsKYcz-15">
          <mxGeometry relative="1" as="geometry" />
        </mxCell>
        <mxCell id="giDGmajodWaBDiLsKYcz-4" value="Sign up" style="rounded=1;whiteSpace=wrap;html=1;" vertex="1" parent="1">
          <mxGeometry x="217.5" y="210" width="130" height="60" as="geometry" />
        </mxCell>
        <mxCell id="giDGmajodWaBDiLsKYcz-5" value="" style="edgeStyle=orthogonalEdgeStyle;rounded=0;orthogonalLoop=1;jettySize=auto;html=1;endArrow=block;endFill=0;" edge="1" parent="1" source="giDGmajodWaBDiLsKYcz-6" target="giDGmajodWaBDiLsKYcz-19">
          <mxGeometry relative="1" as="geometry" />
        </mxCell>
        <mxCell id="giDGmajodWaBDiLsKYcz-6" value="Fill information" style="whiteSpace=wrap;html=1;rounded=1;" vertex="1" parent="1">
          <mxGeometry x="640" y="-80" width="120" height="60" as="geometry" />
        </mxCell>
        <mxCell id="giDGmajodWaBDiLsKYcz-9" value="No" style="edgeStyle=orthogonalEdgeStyle;rounded=0;orthogonalLoop=1;jettySize=auto;html=1;exitX=0.5;exitY=1;exitDx=0;exitDy=0;entryX=0.5;entryY=0;entryDx=0;entryDy=0;endArrow=block;endFill=0;" edge="1" parent="1" source="giDGmajodWaBDiLsKYcz-11" target="giDGmajodWaBDiLsKYcz-4">
          <mxGeometry relative="1" as="geometry" />
        </mxCell>
        <mxCell id="giDGmajodWaBDiLsKYcz-10" value="Yes" style="edgeStyle=orthogonalEdgeStyle;rounded=0;orthogonalLoop=1;jettySize=auto;html=1;endArrow=block;endFill=0;" edge="1" parent="1" source="giDGmajodWaBDiLsKYcz-11" target="giDGmajodWaBDiLsKYcz-13">
          <mxGeometry relative="1" as="geometry" />
        </mxCell>
        <mxCell id="giDGmajodWaBDiLsKYcz-11" value="user have account ?" style="rhombus;whiteSpace=wrap;html=1;rounded=1;glass=0;strokeWidth=1;shadow=0;" vertex="1" parent="1">
          <mxGeometry x="240" y="70" width="85" height="80" as="geometry" />
        </mxCell>
        <mxCell id="giDGmajodWaBDiLsKYcz-12" value="" style="edgeStyle=orthogonalEdgeStyle;rounded=0;orthogonalLoop=1;jettySize=auto;html=1;endArrow=block;endFill=0;" edge="1" parent="1" source="giDGmajodWaBDiLsKYcz-13" target="giDGmajodWaBDiLsKYcz-15">
          <mxGeometry relative="1" as="geometry" />
        </mxCell>
        <mxCell id="giDGmajodWaBDiLsKYcz-13" value="Log in" style="whiteSpace=wrap;html=1;rounded=1;glass=0;strokeWidth=1;shadow=0;" vertex="1" parent="1">
          <mxGeometry x="222.5" y="-80" width="120" height="60" as="geometry" />
        </mxCell>
        <mxCell id="giDGmajodWaBDiLsKYcz-14" value="Submit" style="edgeStyle=orthogonalEdgeStyle;rounded=0;orthogonalLoop=1;jettySize=auto;html=1;endArrow=block;endFill=0;" edge="1" parent="1" source="giDGmajodWaBDiLsKYcz-15">
          <mxGeometry relative="1" as="geometry">
            <mxPoint x="642.5" y="-50" as="targetPoint" />
          </mxGeometry>
        </mxCell>
        <mxCell id="giDGmajodWaBDiLsKYcz-15" value="View competition" style="whiteSpace=wrap;html=1;rounded=1;glass=0;strokeWidth=1;shadow=0;" vertex="1" parent="1">
          <mxGeometry x="422.5" y="-80" width="120" height="60" as="geometry" />
        </mxCell>
        <mxCell id="giDGmajodWaBDiLsKYcz-19" value="Upload poster" style="whiteSpace=wrap;html=1;rounded=1;" vertex="1" parent="1">
          <mxGeometry x="840" y="-80" width="120" height="60" as="geometry" />
        </mxCell>
        <mxCell id="gESqx9uQUehOI6T0gI-5-1" value="Attendee submit" style="rounded=0;whiteSpace=wrap;html=1;" vertex="1" parent="1">
          <mxGeometry x="15" y="-210" width="120" height="60" as="geometry" />
        </mxCell>
      </root>
    </mxGraphModel>
  </diagram>
  <diagram id="bGDpLwWso8nofHcJgY14" name="Attendee regis submit">
    <mxGraphModel dx="1422" dy="1862" grid="1" gridSize="10" guides="1" tooltips="1" connect="1" arrows="1" fold="1" page="1" pageScale="1" pageWidth="850" pageHeight="1100" math="0" shadow="0">
      <root>
        <mxCell id="0" />
        <mxCell id="1" parent="0" />
        <mxCell id="wbceZyd0JUHOawMnVp9u-1" value="" style="edgeStyle=orthogonalEdgeStyle;rounded=0;orthogonalLoop=1;jettySize=auto;html=1;endArrow=block;endFill=0;" edge="1" parent="1" source="wbceZyd0JUHOawMnVp9u-2" target="wbceZyd0JUHOawMnVp9u-9">
          <mxGeometry relative="1" as="geometry" />
        </mxCell>
        <mxCell id="wbceZyd0JUHOawMnVp9u-2" value="View app landing page" style="rounded=1;whiteSpace=wrap;html=1;fontSize=12;glass=0;strokeWidth=1;shadow=0;" vertex="1" parent="1">
          <mxGeometry x="10" y="80" width="130" height="60" as="geometry" />
        </mxCell>
        <mxCell id="wbceZyd0JUHOawMnVp9u-3" style="edgeStyle=orthogonalEdgeStyle;rounded=0;orthogonalLoop=1;jettySize=auto;html=1;exitX=1;exitY=0.5;exitDx=0;exitDy=0;entryX=0.5;entryY=1;entryDx=0;entryDy=0;endArrow=block;endFill=0;" edge="1" parent="1" source="wbceZyd0JUHOawMnVp9u-4" target="wbceZyd0JUHOawMnVp9u-6">
          <mxGeometry relative="1" as="geometry">
            <mxPoint x="482.5" y="-20" as="targetPoint" />
          </mxGeometry>
        </mxCell>
        <mxCell id="wbceZyd0JUHOawMnVp9u-4" value="Sign up" style="rounded=1;whiteSpace=wrap;html=1;" vertex="1" parent="1">
          <mxGeometry x="217.5" y="210" width="130" height="60" as="geometry" />
        </mxCell>
        <mxCell id="wbceZyd0JUHOawMnVp9u-5" value="Submit" style="edgeStyle=orthogonalEdgeStyle;rounded=0;orthogonalLoop=1;jettySize=auto;html=1;endArrow=block;endFill=0;entryX=0;entryY=0.5;entryDx=0;entryDy=0;" edge="1" parent="1" source="wbceZyd0JUHOawMnVp9u-6" target="wbceZyd0JUHOawMnVp9u-14">
          <mxGeometry relative="1" as="geometry">
            <mxPoint x="625" y="-50" as="targetPoint" />
          </mxGeometry>
        </mxCell>
        <mxCell id="wbceZyd0JUHOawMnVp9u-6" value="Register competition" style="whiteSpace=wrap;html=1;rounded=1;" vertex="1" parent="1">
          <mxGeometry x="425" y="-80" width="120" height="60" as="geometry" />
        </mxCell>
        <mxCell id="wbceZyd0JUHOawMnVp9u-7" value="No" style="edgeStyle=orthogonalEdgeStyle;rounded=0;orthogonalLoop=1;jettySize=auto;html=1;exitX=0.5;exitY=1;exitDx=0;exitDy=0;entryX=0.5;entryY=0;entryDx=0;entryDy=0;endArrow=block;endFill=0;" edge="1" parent="1" source="wbceZyd0JUHOawMnVp9u-9" target="wbceZyd0JUHOawMnVp9u-4">
          <mxGeometry relative="1" as="geometry" />
        </mxCell>
        <mxCell id="wbceZyd0JUHOawMnVp9u-8" value="Yes" style="edgeStyle=orthogonalEdgeStyle;rounded=0;orthogonalLoop=1;jettySize=auto;html=1;endArrow=block;endFill=0;" edge="1" parent="1" source="wbceZyd0JUHOawMnVp9u-9" target="wbceZyd0JUHOawMnVp9u-11">
          <mxGeometry relative="1" as="geometry" />
        </mxCell>
        <mxCell id="wbceZyd0JUHOawMnVp9u-9" value="user have account ?" style="rhombus;whiteSpace=wrap;html=1;rounded=1;glass=0;strokeWidth=1;shadow=0;" vertex="1" parent="1">
          <mxGeometry x="240" y="70" width="85" height="80" as="geometry" />
        </mxCell>
        <mxCell id="wbceZyd0JUHOawMnVp9u-10" value="" style="edgeStyle=orthogonalEdgeStyle;rounded=0;orthogonalLoop=1;jettySize=auto;html=1;endArrow=block;endFill=0;entryX=0;entryY=0.5;entryDx=0;entryDy=0;" edge="1" parent="1" source="wbceZyd0JUHOawMnVp9u-11" target="wbceZyd0JUHOawMnVp9u-6">
          <mxGeometry relative="1" as="geometry">
            <mxPoint x="422.5" y="-50" as="targetPoint" />
          </mxGeometry>
        </mxCell>
        <mxCell id="wbceZyd0JUHOawMnVp9u-11" value="Log in" style="whiteSpace=wrap;html=1;rounded=1;glass=0;strokeWidth=1;shadow=0;" vertex="1" parent="1">
          <mxGeometry x="222.5" y="-80" width="120" height="60" as="geometry" />
        </mxCell>
        <mxCell id="LMqGoCFTUWRHLOw_9QVk-2" value="" style="edgeStyle=orthogonalEdgeStyle;rounded=0;orthogonalLoop=1;jettySize=auto;html=1;endArrow=block;endFill=0;" edge="1" parent="1" source="wbceZyd0JUHOawMnVp9u-14" target="LMqGoCFTUWRHLOw_9QVk-1">
          <mxGeometry relative="1" as="geometry" />
        </mxCell>
        <mxCell id="wbceZyd0JUHOawMnVp9u-14" value="Fill poster info" style="whiteSpace=wrap;html=1;rounded=1;" vertex="1" parent="1">
          <mxGeometry x="630" y="-80" width="120" height="60" as="geometry" />
        </mxCell>
        <mxCell id="LMqGoCFTUWRHLOw_9QVk-1" value="Upload poster" style="whiteSpace=wrap;html=1;rounded=1;" vertex="1" parent="1">
          <mxGeometry x="820" y="-80" width="120" height="60" as="geometry" />
        </mxCell>
        <mxCell id="WZSymNyXl2GVUBVX8CEq-1" value="Attendee register then submit" style="rounded=0;whiteSpace=wrap;html=1;" vertex="1" parent="1">
          <mxGeometry x="15" y="-210" width="120" height="60" as="geometry" />
        </mxCell>
      </root>
    </mxGraphModel>
  </diagram>
  <diagram id="W8mAzJv307CHsKuE3q3d" name="Attendee manage submit poster">
    <mxGraphModel dx="1422" dy="1862" grid="1" gridSize="10" guides="1" tooltips="1" connect="1" arrows="1" fold="1" page="1" pageScale="1" pageWidth="850" pageHeight="1100" math="0" shadow="0">
      <root>
        <mxCell id="0" />
        <mxCell id="1" parent="0" />
        <mxCell id="upD9gct4plpZrWRJ73y7-1" value="" style="edgeStyle=orthogonalEdgeStyle;rounded=0;orthogonalLoop=1;jettySize=auto;html=1;endArrow=block;endFill=0;" edge="1" parent="1" source="upD9gct4plpZrWRJ73y7-2" target="upD9gct4plpZrWRJ73y7-9">
          <mxGeometry relative="1" as="geometry" />
        </mxCell>
        <mxCell id="upD9gct4plpZrWRJ73y7-2" value="View app landing page" style="rounded=1;whiteSpace=wrap;html=1;fontSize=12;glass=0;strokeWidth=1;shadow=0;" vertex="1" parent="1">
          <mxGeometry x="10" y="80" width="130" height="60" as="geometry" />
        </mxCell>
        <mxCell id="upD9gct4plpZrWRJ73y7-3" style="edgeStyle=orthogonalEdgeStyle;rounded=0;orthogonalLoop=1;jettySize=auto;html=1;exitX=1;exitY=0.5;exitDx=0;exitDy=0;entryX=0.5;entryY=1;entryDx=0;entryDy=0;endArrow=block;endFill=0;" edge="1" parent="1" source="upD9gct4plpZrWRJ73y7-4" target="upD9gct4plpZrWRJ73y7-6">
          <mxGeometry relative="1" as="geometry">
            <mxPoint x="482.5" y="-20" as="targetPoint" />
          </mxGeometry>
        </mxCell>
        <mxCell id="upD9gct4plpZrWRJ73y7-4" value="Sign up" style="rounded=1;whiteSpace=wrap;html=1;" vertex="1" parent="1">
          <mxGeometry x="217.5" y="210" width="130" height="60" as="geometry" />
        </mxCell>
        <mxCell id="upD9gct4plpZrWRJ73y7-15" style="edgeStyle=orthogonalEdgeStyle;rounded=0;orthogonalLoop=1;jettySize=auto;html=1;exitX=1;exitY=0.5;exitDx=0;exitDy=0;entryX=0;entryY=0.5;entryDx=0;entryDy=0;endArrow=block;endFill=0;" edge="1" parent="1" source="upD9gct4plpZrWRJ73y7-6" target="upD9gct4plpZrWRJ73y7-13">
          <mxGeometry relative="1" as="geometry" />
        </mxCell>
        <mxCell id="upD9gct4plpZrWRJ73y7-6" value="View competition page" style="whiteSpace=wrap;html=1;rounded=1;" vertex="1" parent="1">
          <mxGeometry x="425" y="-80" width="120" height="60" as="geometry" />
        </mxCell>
        <mxCell id="upD9gct4plpZrWRJ73y7-7" value="No" style="edgeStyle=orthogonalEdgeStyle;rounded=0;orthogonalLoop=1;jettySize=auto;html=1;exitX=0.5;exitY=1;exitDx=0;exitDy=0;entryX=0.5;entryY=0;entryDx=0;entryDy=0;endArrow=block;endFill=0;" edge="1" parent="1" source="upD9gct4plpZrWRJ73y7-9" target="upD9gct4plpZrWRJ73y7-4">
          <mxGeometry relative="1" as="geometry" />
        </mxCell>
        <mxCell id="upD9gct4plpZrWRJ73y7-8" value="Yes" style="edgeStyle=orthogonalEdgeStyle;rounded=0;orthogonalLoop=1;jettySize=auto;html=1;endArrow=block;endFill=0;" edge="1" parent="1" source="upD9gct4plpZrWRJ73y7-9" target="upD9gct4plpZrWRJ73y7-11">
          <mxGeometry relative="1" as="geometry" />
        </mxCell>
        <mxCell id="upD9gct4plpZrWRJ73y7-9" value="user have account ?" style="rhombus;whiteSpace=wrap;html=1;rounded=1;glass=0;strokeWidth=1;shadow=0;" vertex="1" parent="1">
          <mxGeometry x="240" y="70" width="85" height="80" as="geometry" />
        </mxCell>
        <mxCell id="upD9gct4plpZrWRJ73y7-10" value="" style="edgeStyle=orthogonalEdgeStyle;rounded=0;orthogonalLoop=1;jettySize=auto;html=1;endArrow=block;endFill=0;entryX=0;entryY=0.5;entryDx=0;entryDy=0;" edge="1" parent="1" source="upD9gct4plpZrWRJ73y7-11" target="upD9gct4plpZrWRJ73y7-6">
          <mxGeometry relative="1" as="geometry">
            <mxPoint x="422.5" y="-50" as="targetPoint" />
          </mxGeometry>
        </mxCell>
        <mxCell id="upD9gct4plpZrWRJ73y7-11" value="Log in" style="whiteSpace=wrap;html=1;rounded=1;glass=0;strokeWidth=1;shadow=0;" vertex="1" parent="1">
          <mxGeometry x="222.5" y="-80" width="120" height="60" as="geometry" />
        </mxCell>
        <mxCell id="hZ9_Z-TPUWZuhMhp_x9Y-2" value="" style="edgeStyle=orthogonalEdgeStyle;rounded=0;orthogonalLoop=1;jettySize=auto;html=1;endArrow=block;endFill=0;" edge="1" parent="1" source="upD9gct4plpZrWRJ73y7-13" target="hZ9_Z-TPUWZuhMhp_x9Y-1">
          <mxGeometry relative="1" as="geometry" />
        </mxCell>
        <mxCell id="upD9gct4plpZrWRJ73y7-13" value="Manage poster in competition that user register" style="whiteSpace=wrap;html=1;rounded=1;" vertex="1" parent="1">
          <mxGeometry x="630" y="-80" width="120" height="60" as="geometry" />
        </mxCell>
        <mxCell id="hZ9_Z-TPUWZuhMhp_x9Y-5" value="Add" style="edgeStyle=orthogonalEdgeStyle;rounded=0;orthogonalLoop=1;jettySize=auto;html=1;endArrow=block;endFill=0;" edge="1" parent="1" source="hZ9_Z-TPUWZuhMhp_x9Y-1" target="hZ9_Z-TPUWZuhMhp_x9Y-4">
          <mxGeometry relative="1" as="geometry" />
        </mxCell>
        <mxCell id="hZ9_Z-TPUWZuhMhp_x9Y-9" value="Update" style="edgeStyle=orthogonalEdgeStyle;rounded=0;orthogonalLoop=1;jettySize=auto;html=1;endArrow=block;endFill=0;" edge="1" parent="1" source="hZ9_Z-TPUWZuhMhp_x9Y-1" target="hZ9_Z-TPUWZuhMhp_x9Y-8">
          <mxGeometry relative="1" as="geometry" />
        </mxCell>
        <mxCell id="hZ9_Z-TPUWZuhMhp_x9Y-11" value="Delete" style="edgeStyle=orthogonalEdgeStyle;rounded=0;orthogonalLoop=1;jettySize=auto;html=1;endArrow=block;endFill=0;" edge="1" parent="1" source="hZ9_Z-TPUWZuhMhp_x9Y-1" target="hZ9_Z-TPUWZuhMhp_x9Y-10">
          <mxGeometry relative="1" as="geometry" />
        </mxCell>
        <mxCell id="hZ9_Z-TPUWZuhMhp_x9Y-1" value="Add, Update and Delete" style="rhombus;whiteSpace=wrap;html=1;rounded=1;" vertex="1" parent="1">
          <mxGeometry x="860" y="-100" width="100" height="100" as="geometry" />
        </mxCell>
        <mxCell id="hZ9_Z-TPUWZuhMhp_x9Y-7" value="" style="edgeStyle=orthogonalEdgeStyle;rounded=0;orthogonalLoop=1;jettySize=auto;html=1;endArrow=block;endFill=0;" edge="1" parent="1" source="hZ9_Z-TPUWZuhMhp_x9Y-4" target="hZ9_Z-TPUWZuhMhp_x9Y-6">
          <mxGeometry relative="1" as="geometry" />
        </mxCell>
        <mxCell id="hZ9_Z-TPUWZuhMhp_x9Y-4" value="field poster info" style="whiteSpace=wrap;html=1;rounded=1;" vertex="1" parent="1">
          <mxGeometry x="850" y="-260" width="120" height="60" as="geometry" />
        </mxCell>
        <mxCell id="hZ9_Z-TPUWZuhMhp_x9Y-6" value="Submit new poster" style="whiteSpace=wrap;html=1;rounded=1;" vertex="1" parent="1">
          <mxGeometry x="1050" y="-260" width="120" height="60" as="geometry" />
        </mxCell>
        <mxCell id="eV-gxgeuHlCtaarKUgjL-4" value="" style="edgeStyle=orthogonalEdgeStyle;rounded=0;orthogonalLoop=1;jettySize=auto;html=1;endArrow=block;endFill=0;" edge="1" parent="1" source="hZ9_Z-TPUWZuhMhp_x9Y-8" target="eV-gxgeuHlCtaarKUgjL-3">
          <mxGeometry relative="1" as="geometry" />
        </mxCell>
        <mxCell id="hZ9_Z-TPUWZuhMhp_x9Y-8" value="Edit information of poster" style="whiteSpace=wrap;html=1;rounded=1;" vertex="1" parent="1">
          <mxGeometry x="1070" y="-80" width="120" height="60" as="geometry" />
        </mxCell>
        <mxCell id="eV-gxgeuHlCtaarKUgjL-2" value="" style="edgeStyle=orthogonalEdgeStyle;rounded=0;orthogonalLoop=1;jettySize=auto;html=1;endArrow=block;endFill=0;" edge="1" parent="1" source="hZ9_Z-TPUWZuhMhp_x9Y-10" target="eV-gxgeuHlCtaarKUgjL-1">
          <mxGeometry relative="1" as="geometry" />
        </mxCell>
        <mxCell id="hZ9_Z-TPUWZuhMhp_x9Y-10" value="Select poster" style="whiteSpace=wrap;html=1;rounded=1;" vertex="1" parent="1">
          <mxGeometry x="850" y="100" width="120" height="60" as="geometry" />
        </mxCell>
        <mxCell id="eV-gxgeuHlCtaarKUgjL-1" value="Delete poster that select" style="whiteSpace=wrap;html=1;rounded=1;" vertex="1" parent="1">
          <mxGeometry x="1050" y="100" width="120" height="60" as="geometry" />
        </mxCell>
        <mxCell id="eV-gxgeuHlCtaarKUgjL-3" value="Update poster" style="whiteSpace=wrap;html=1;rounded=1;" vertex="1" parent="1">
          <mxGeometry x="1270" y="-80" width="120" height="60" as="geometry" />
        </mxCell>
        <mxCell id="0NNgMYYCidCz80hRv7Nb-1" value="Attendee manage submitted poster" style="rounded=0;whiteSpace=wrap;html=1;" vertex="1" parent="1">
          <mxGeometry x="15" y="-350" width="120" height="60" as="geometry" />
        </mxCell>
      </root>
    </mxGraphModel>
  </diagram>
  <diagram id="CE_VeAfEoVco57-JLKuJ" name="Admin Compet">
    <mxGraphModel dx="1422" dy="1862" grid="1" gridSize="10" guides="1" tooltips="1" connect="1" arrows="1" fold="1" page="1" pageScale="1" pageWidth="850" pageHeight="1100" math="0" shadow="0">
      <root>
        <mxCell id="0" />
        <mxCell id="1" parent="0" />
        <mxCell id="IWxwIruTq1z-QWHl3ojv-1" value="" style="edgeStyle=orthogonalEdgeStyle;rounded=0;orthogonalLoop=1;jettySize=auto;html=1;endArrow=block;endFill=0;" edge="1" parent="1" source="IWxwIruTq1z-QWHl3ojv-2">
          <mxGeometry relative="1" as="geometry">
            <mxPoint x="240" y="110" as="targetPoint" />
          </mxGeometry>
        </mxCell>
        <mxCell id="IWxwIruTq1z-QWHl3ojv-2" value="View app landing page" style="rounded=1;whiteSpace=wrap;html=1;fontSize=12;glass=0;strokeWidth=1;shadow=0;" vertex="1" parent="1">
          <mxGeometry x="10" y="80" width="130" height="60" as="geometry" />
        </mxCell>
        <mxCell id="IWxwIruTq1z-QWHl3ojv-22" value="" style="edgeStyle=orthogonalEdgeStyle;rounded=0;orthogonalLoop=1;jettySize=auto;html=1;endArrow=block;endFill=0;" edge="1" parent="1" source="IWxwIruTq1z-QWHl3ojv-11" target="IWxwIruTq1z-QWHl3ojv-21">
          <mxGeometry relative="1" as="geometry" />
        </mxCell>
        <mxCell id="IWxwIruTq1z-QWHl3ojv-11" value="Log in" style="whiteSpace=wrap;html=1;rounded=1;glass=0;strokeWidth=1;shadow=0;" vertex="1" parent="1">
          <mxGeometry x="240" y="80" width="120" height="60" as="geometry" />
        </mxCell>
        <mxCell id="IWxwIruTq1z-QWHl3ojv-24" value="Add" style="edgeStyle=orthogonalEdgeStyle;rounded=0;orthogonalLoop=1;jettySize=auto;html=1;endArrow=block;endFill=0;" edge="1" parent="1" source="IWxwIruTq1z-QWHl3ojv-21" target="IWxwIruTq1z-QWHl3ojv-23">
          <mxGeometry relative="1" as="geometry" />
        </mxCell>
        <mxCell id="3oQ2KK-LGWq1LyM3FY_0-4" value="" style="edgeStyle=orthogonalEdgeStyle;rounded=0;orthogonalLoop=1;jettySize=auto;html=1;endArrow=block;endFill=0;" edge="1" parent="1" source="IWxwIruTq1z-QWHl3ojv-21" target="3oQ2KK-LGWq1LyM3FY_0-3">
          <mxGeometry relative="1" as="geometry" />
        </mxCell>
        <mxCell id="3oQ2KK-LGWq1LyM3FY_0-5" value="Update" style="edgeLabel;html=1;align=center;verticalAlign=middle;resizable=0;points=[];" vertex="1" connectable="0" parent="3oQ2KK-LGWq1LyM3FY_0-4">
          <mxGeometry x="-0.2182" relative="1" as="geometry">
            <mxPoint as="offset" />
          </mxGeometry>
        </mxCell>
        <mxCell id="3oQ2KK-LGWq1LyM3FY_0-9" value="Delete" style="edgeStyle=orthogonalEdgeStyle;rounded=0;orthogonalLoop=1;jettySize=auto;html=1;endArrow=block;endFill=0;" edge="1" parent="1" source="IWxwIruTq1z-QWHl3ojv-21" target="3oQ2KK-LGWq1LyM3FY_0-8">
          <mxGeometry relative="1" as="geometry" />
        </mxCell>
        <mxCell id="IWxwIruTq1z-QWHl3ojv-21" value="Add&amp;nbsp; or update or delete Competition" style="rhombus;whiteSpace=wrap;html=1;rounded=1;glass=0;strokeWidth=1;shadow=0;" vertex="1" parent="1">
          <mxGeometry x="460" y="50" width="120" height="120" as="geometry" />
        </mxCell>
        <mxCell id="3oQ2KK-LGWq1LyM3FY_0-2" value="" style="edgeStyle=orthogonalEdgeStyle;rounded=0;orthogonalLoop=1;jettySize=auto;html=1;endArrow=block;endFill=0;" edge="1" parent="1" source="IWxwIruTq1z-QWHl3ojv-23" target="3oQ2KK-LGWq1LyM3FY_0-1">
          <mxGeometry relative="1" as="geometry" />
        </mxCell>
        <mxCell id="IWxwIruTq1z-QWHl3ojv-23" value="Fill Competition form" style="whiteSpace=wrap;html=1;rounded=1;glass=0;strokeWidth=1;shadow=0;" vertex="1" parent="1">
          <mxGeometry x="460" y="-120" width="120" height="60" as="geometry" />
        </mxCell>
        <mxCell id="3oQ2KK-LGWq1LyM3FY_0-1" value="Deploy Competition" style="whiteSpace=wrap;html=1;rounded=1;glass=0;strokeWidth=1;shadow=0;" vertex="1" parent="1">
          <mxGeometry x="660" y="-120" width="120" height="60" as="geometry" />
        </mxCell>
        <mxCell id="3oQ2KK-LGWq1LyM3FY_0-7" value="" style="edgeStyle=orthogonalEdgeStyle;rounded=0;orthogonalLoop=1;jettySize=auto;html=1;endArrow=block;endFill=0;" edge="1" parent="1" source="3oQ2KK-LGWq1LyM3FY_0-3" target="3oQ2KK-LGWq1LyM3FY_0-6">
          <mxGeometry relative="1" as="geometry" />
        </mxCell>
        <mxCell id="3oQ2KK-LGWq1LyM3FY_0-3" value="Select one competition" style="whiteSpace=wrap;html=1;rounded=1;glass=0;strokeWidth=1;shadow=0;" vertex="1" parent="1">
          <mxGeometry x="690" y="80" width="120" height="60" as="geometry" />
        </mxCell>
        <mxCell id="3oQ2KK-LGWq1LyM3FY_0-6" value="Update selected competition info" style="whiteSpace=wrap;html=1;rounded=1;glass=0;strokeWidth=1;shadow=0;" vertex="1" parent="1">
          <mxGeometry x="890" y="80" width="120" height="60" as="geometry" />
        </mxCell>
        <mxCell id="3oQ2KK-LGWq1LyM3FY_0-11" value="" style="edgeStyle=orthogonalEdgeStyle;rounded=0;orthogonalLoop=1;jettySize=auto;html=1;endArrow=block;endFill=0;" edge="1" parent="1" source="3oQ2KK-LGWq1LyM3FY_0-8" target="3oQ2KK-LGWq1LyM3FY_0-10">
          <mxGeometry relative="1" as="geometry" />
        </mxCell>
        <mxCell id="3oQ2KK-LGWq1LyM3FY_0-8" value="Select competition" style="whiteSpace=wrap;html=1;rounded=1;glass=0;strokeWidth=1;shadow=0;" vertex="1" parent="1">
          <mxGeometry x="460" y="280" width="120" height="60" as="geometry" />
        </mxCell>
        <mxCell id="3oQ2KK-LGWq1LyM3FY_0-10" value="Delete the select competition" style="whiteSpace=wrap;html=1;rounded=1;glass=0;strokeWidth=1;shadow=0;" vertex="1" parent="1">
          <mxGeometry x="660" y="280" width="120" height="60" as="geometry" />
        </mxCell>
        <mxCell id="9U2xFi-HbDHLnBWgkeP0-1" value="Admin manage competition" style="rounded=0;whiteSpace=wrap;html=1;" vertex="1" parent="1">
          <mxGeometry x="15" y="-210" width="120" height="60" as="geometry" />
        </mxCell>
      </root>
    </mxGraphModel>
  </diagram>
  <diagram id="r0wAtDm7nzcFoRmGZgco" name="Admin User">
    <mxGraphModel dx="1422" dy="1862" grid="1" gridSize="10" guides="1" tooltips="1" connect="1" arrows="1" fold="1" page="1" pageScale="1" pageWidth="850" pageHeight="1100" math="0" shadow="0">
      <root>
        <mxCell id="0" />
        <mxCell id="1" parent="0" />
        <mxCell id="5sJ0GKsx60-mTU3jxOit-1" value="" style="edgeStyle=orthogonalEdgeStyle;rounded=0;orthogonalLoop=1;jettySize=auto;html=1;endArrow=block;endFill=0;" edge="1" parent="1" source="5sJ0GKsx60-mTU3jxOit-2">
          <mxGeometry relative="1" as="geometry">
            <mxPoint x="240" y="110" as="targetPoint" />
          </mxGeometry>
        </mxCell>
        <mxCell id="5sJ0GKsx60-mTU3jxOit-2" value="View app landing page" style="rounded=1;whiteSpace=wrap;html=1;fontSize=12;glass=0;strokeWidth=1;shadow=0;" vertex="1" parent="1">
          <mxGeometry x="10" y="80" width="130" height="60" as="geometry" />
        </mxCell>
        <mxCell id="5sJ0GKsx60-mTU3jxOit-3" value="" style="edgeStyle=orthogonalEdgeStyle;rounded=0;orthogonalLoop=1;jettySize=auto;html=1;endArrow=block;endFill=0;" edge="1" parent="1" source="5sJ0GKsx60-mTU3jxOit-4" target="5sJ0GKsx60-mTU3jxOit-9">
          <mxGeometry relative="1" as="geometry" />
        </mxCell>
        <mxCell id="5sJ0GKsx60-mTU3jxOit-4" value="Log in" style="whiteSpace=wrap;html=1;rounded=1;glass=0;strokeWidth=1;shadow=0;" vertex="1" parent="1">
          <mxGeometry x="240" y="80" width="120" height="60" as="geometry" />
        </mxCell>
        <mxCell id="5sJ0GKsx60-mTU3jxOit-5" value="Add" style="edgeStyle=orthogonalEdgeStyle;rounded=0;orthogonalLoop=1;jettySize=auto;html=1;endArrow=block;endFill=0;" edge="1" parent="1" source="5sJ0GKsx60-mTU3jxOit-9" target="5sJ0GKsx60-mTU3jxOit-11">
          <mxGeometry relative="1" as="geometry" />
        </mxCell>
        <mxCell id="5sJ0GKsx60-mTU3jxOit-6" value="" style="edgeStyle=orthogonalEdgeStyle;rounded=0;orthogonalLoop=1;jettySize=auto;html=1;endArrow=block;endFill=0;" edge="1" parent="1" source="5sJ0GKsx60-mTU3jxOit-9" target="5sJ0GKsx60-mTU3jxOit-14">
          <mxGeometry relative="1" as="geometry" />
        </mxCell>
        <mxCell id="5sJ0GKsx60-mTU3jxOit-7" value="Update" style="edgeLabel;html=1;align=center;verticalAlign=middle;resizable=0;points=[];" vertex="1" connectable="0" parent="5sJ0GKsx60-mTU3jxOit-6">
          <mxGeometry x="-0.2182" relative="1" as="geometry">
            <mxPoint as="offset" />
          </mxGeometry>
        </mxCell>
        <mxCell id="5sJ0GKsx60-mTU3jxOit-8" value="Delete" style="edgeStyle=orthogonalEdgeStyle;rounded=0;orthogonalLoop=1;jettySize=auto;html=1;endArrow=block;endFill=0;" edge="1" parent="1" source="5sJ0GKsx60-mTU3jxOit-9" target="5sJ0GKsx60-mTU3jxOit-17">
          <mxGeometry relative="1" as="geometry" />
        </mxCell>
        <mxCell id="5sJ0GKsx60-mTU3jxOit-9" value="Add&amp;nbsp; or update or delete User" style="rhombus;whiteSpace=wrap;html=1;rounded=1;glass=0;strokeWidth=1;shadow=0;" vertex="1" parent="1">
          <mxGeometry x="460" y="50" width="120" height="120" as="geometry" />
        </mxCell>
        <mxCell id="5sJ0GKsx60-mTU3jxOit-10" value="" style="edgeStyle=orthogonalEdgeStyle;rounded=0;orthogonalLoop=1;jettySize=auto;html=1;endArrow=block;endFill=0;" edge="1" parent="1" source="5sJ0GKsx60-mTU3jxOit-11" target="5sJ0GKsx60-mTU3jxOit-12">
          <mxGeometry relative="1" as="geometry" />
        </mxCell>
        <mxCell id="5sJ0GKsx60-mTU3jxOit-11" value="Fill user name" style="whiteSpace=wrap;html=1;rounded=1;glass=0;strokeWidth=1;shadow=0;" vertex="1" parent="1">
          <mxGeometry x="460" y="-120" width="120" height="60" as="geometry" />
        </mxCell>
        <mxCell id="5sJ0GKsx60-mTU3jxOit-12" value="Add user in competition" style="whiteSpace=wrap;html=1;rounded=1;glass=0;strokeWidth=1;shadow=0;" vertex="1" parent="1">
          <mxGeometry x="660" y="-120" width="120" height="60" as="geometry" />
        </mxCell>
        <mxCell id="5sJ0GKsx60-mTU3jxOit-13" value="" style="edgeStyle=orthogonalEdgeStyle;rounded=0;orthogonalLoop=1;jettySize=auto;html=1;endArrow=block;endFill=0;" edge="1" parent="1" source="5sJ0GKsx60-mTU3jxOit-14" target="5sJ0GKsx60-mTU3jxOit-15">
          <mxGeometry relative="1" as="geometry" />
        </mxCell>
        <mxCell id="5sJ0GKsx60-mTU3jxOit-14" value="Select one user" style="whiteSpace=wrap;html=1;rounded=1;glass=0;strokeWidth=1;shadow=0;" vertex="1" parent="1">
          <mxGeometry x="690" y="80" width="120" height="60" as="geometry" />
        </mxCell>
        <mxCell id="5sJ0GKsx60-mTU3jxOit-15" value="Update selected user info" style="whiteSpace=wrap;html=1;rounded=1;glass=0;strokeWidth=1;shadow=0;" vertex="1" parent="1">
          <mxGeometry x="890" y="80" width="120" height="60" as="geometry" />
        </mxCell>
        <mxCell id="5sJ0GKsx60-mTU3jxOit-16" value="" style="edgeStyle=orthogonalEdgeStyle;rounded=0;orthogonalLoop=1;jettySize=auto;html=1;endArrow=block;endFill=0;" edge="1" parent="1" source="5sJ0GKsx60-mTU3jxOit-17" target="5sJ0GKsx60-mTU3jxOit-18">
          <mxGeometry relative="1" as="geometry" />
        </mxCell>
        <mxCell id="5sJ0GKsx60-mTU3jxOit-17" value="Select users" style="whiteSpace=wrap;html=1;rounded=1;glass=0;strokeWidth=1;shadow=0;" vertex="1" parent="1">
          <mxGeometry x="460" y="280" width="120" height="60" as="geometry" />
        </mxCell>
        <mxCell id="5sJ0GKsx60-mTU3jxOit-18" value="Delete the select users from competition" style="whiteSpace=wrap;html=1;rounded=1;glass=0;strokeWidth=1;shadow=0;" vertex="1" parent="1">
          <mxGeometry x="660" y="280" width="120" height="60" as="geometry" />
        </mxCell>
        <mxCell id="_oA-Cye2_0uO-hqmtHK4-1" value="Admin manage users in competition" style="rounded=0;whiteSpace=wrap;html=1;" vertex="1" parent="1">
          <mxGeometry x="15" y="-210" width="120" height="60" as="geometry" />
        </mxCell>
      </root>
    </mxGraphModel>
  </diagram>
  <diagram id="zxlJ6XyxkjIHeW9m8X19" name="Admin poster">
    <mxGraphModel dx="1422" dy="1862" grid="1" gridSize="10" guides="1" tooltips="1" connect="1" arrows="1" fold="1" page="1" pageScale="1" pageWidth="850" pageHeight="1100" math="0" shadow="0">
      <root>
        <mxCell id="0" />
        <mxCell id="1" parent="0" />
        <mxCell id="ktw51wslxtq2xfClUa0H-1" value="" style="edgeStyle=orthogonalEdgeStyle;rounded=0;orthogonalLoop=1;jettySize=auto;html=1;endArrow=block;endFill=0;" edge="1" parent="1" source="ktw51wslxtq2xfClUa0H-2">
          <mxGeometry relative="1" as="geometry">
            <mxPoint x="240" y="110" as="targetPoint" />
          </mxGeometry>
        </mxCell>
        <mxCell id="ktw51wslxtq2xfClUa0H-2" value="View app landing page" style="rounded=1;whiteSpace=wrap;html=1;fontSize=12;glass=0;strokeWidth=1;shadow=0;" vertex="1" parent="1">
          <mxGeometry x="10" y="80" width="130" height="60" as="geometry" />
        </mxCell>
        <mxCell id="ktw51wslxtq2xfClUa0H-3" value="" style="edgeStyle=orthogonalEdgeStyle;rounded=0;orthogonalLoop=1;jettySize=auto;html=1;endArrow=block;endFill=0;" edge="1" parent="1" source="ktw51wslxtq2xfClUa0H-4" target="ktw51wslxtq2xfClUa0H-9">
          <mxGeometry relative="1" as="geometry" />
        </mxCell>
        <mxCell id="ktw51wslxtq2xfClUa0H-4" value="Log in" style="whiteSpace=wrap;html=1;rounded=1;glass=0;strokeWidth=1;shadow=0;" vertex="1" parent="1">
          <mxGeometry x="240" y="80" width="120" height="60" as="geometry" />
        </mxCell>
        <mxCell id="ktw51wslxtq2xfClUa0H-5" value="Add" style="edgeStyle=orthogonalEdgeStyle;rounded=0;orthogonalLoop=1;jettySize=auto;html=1;endArrow=block;endFill=0;" edge="1" parent="1" source="ktw51wslxtq2xfClUa0H-9" target="ktw51wslxtq2xfClUa0H-11">
          <mxGeometry relative="1" as="geometry" />
        </mxCell>
        <mxCell id="ktw51wslxtq2xfClUa0H-6" value="" style="edgeStyle=orthogonalEdgeStyle;rounded=0;orthogonalLoop=1;jettySize=auto;html=1;endArrow=block;endFill=0;" edge="1" parent="1" source="ktw51wslxtq2xfClUa0H-9" target="ktw51wslxtq2xfClUa0H-14">
          <mxGeometry relative="1" as="geometry" />
        </mxCell>
        <mxCell id="ktw51wslxtq2xfClUa0H-7" value="Update" style="edgeLabel;html=1;align=center;verticalAlign=middle;resizable=0;points=[];" vertex="1" connectable="0" parent="ktw51wslxtq2xfClUa0H-6">
          <mxGeometry x="-0.2182" relative="1" as="geometry">
            <mxPoint as="offset" />
          </mxGeometry>
        </mxCell>
        <mxCell id="ktw51wslxtq2xfClUa0H-8" value="Delete" style="edgeStyle=orthogonalEdgeStyle;rounded=0;orthogonalLoop=1;jettySize=auto;html=1;endArrow=block;endFill=0;" edge="1" parent="1" source="ktw51wslxtq2xfClUa0H-9" target="ktw51wslxtq2xfClUa0H-17">
          <mxGeometry relative="1" as="geometry" />
        </mxCell>
        <mxCell id="ktw51wslxtq2xfClUa0H-9" value="Add&amp;nbsp; or update or delete Poster" style="rhombus;whiteSpace=wrap;html=1;rounded=1;glass=0;strokeWidth=1;shadow=0;" vertex="1" parent="1">
          <mxGeometry x="460" y="50" width="120" height="120" as="geometry" />
        </mxCell>
        <mxCell id="ktw51wslxtq2xfClUa0H-10" value="" style="edgeStyle=orthogonalEdgeStyle;rounded=0;orthogonalLoop=1;jettySize=auto;html=1;endArrow=block;endFill=0;" edge="1" parent="1" source="ktw51wslxtq2xfClUa0H-11" target="ktw51wslxtq2xfClUa0H-12">
          <mxGeometry relative="1" as="geometry" />
        </mxCell>
        <mxCell id="ktw51wslxtq2xfClUa0H-11" value="Fill poster info" style="whiteSpace=wrap;html=1;rounded=1;glass=0;strokeWidth=1;shadow=0;" vertex="1" parent="1">
          <mxGeometry x="460" y="-120" width="120" height="60" as="geometry" />
        </mxCell>
        <mxCell id="ktw51wslxtq2xfClUa0H-12" value="Add poster on competition" style="whiteSpace=wrap;html=1;rounded=1;glass=0;strokeWidth=1;shadow=0;" vertex="1" parent="1">
          <mxGeometry x="660" y="-120" width="120" height="60" as="geometry" />
        </mxCell>
        <mxCell id="ktw51wslxtq2xfClUa0H-13" value="" style="edgeStyle=orthogonalEdgeStyle;rounded=0;orthogonalLoop=1;jettySize=auto;html=1;endArrow=block;endFill=0;" edge="1" parent="1" source="ktw51wslxtq2xfClUa0H-14" target="ktw51wslxtq2xfClUa0H-15">
          <mxGeometry relative="1" as="geometry" />
        </mxCell>
        <mxCell id="ktw51wslxtq2xfClUa0H-14" value="Select one poster" style="whiteSpace=wrap;html=1;rounded=1;glass=0;strokeWidth=1;shadow=0;" vertex="1" parent="1">
          <mxGeometry x="690" y="80" width="120" height="60" as="geometry" />
        </mxCell>
        <mxCell id="ktw51wslxtq2xfClUa0H-15" value="Update selected poster info" style="whiteSpace=wrap;html=1;rounded=1;glass=0;strokeWidth=1;shadow=0;" vertex="1" parent="1">
          <mxGeometry x="890" y="80" width="120" height="60" as="geometry" />
        </mxCell>
        <mxCell id="ktw51wslxtq2xfClUa0H-16" value="" style="edgeStyle=orthogonalEdgeStyle;rounded=0;orthogonalLoop=1;jettySize=auto;html=1;endArrow=block;endFill=0;" edge="1" parent="1" source="ktw51wslxtq2xfClUa0H-17" target="ktw51wslxtq2xfClUa0H-18">
          <mxGeometry relative="1" as="geometry" />
        </mxCell>
        <mxCell id="ktw51wslxtq2xfClUa0H-17" value="Select posters" style="whiteSpace=wrap;html=1;rounded=1;glass=0;strokeWidth=1;shadow=0;" vertex="1" parent="1">
          <mxGeometry x="460" y="280" width="120" height="60" as="geometry" />
        </mxCell>
        <mxCell id="ktw51wslxtq2xfClUa0H-18" value="Delete the select posters from competition" style="whiteSpace=wrap;html=1;rounded=1;glass=0;strokeWidth=1;shadow=0;" vertex="1" parent="1">
          <mxGeometry x="660" y="280" width="120" height="60" as="geometry" />
        </mxCell>
        <mxCell id="f2nF2Q7jBXvWIrrCf3w0-1" value="Admin manage poster in competition" style="rounded=0;whiteSpace=wrap;html=1;" vertex="1" parent="1">
          <mxGeometry x="15" y="-210" width="120" height="60" as="geometry" />
        </mxCell>
      </root>
    </mxGraphModel>
  </diagram>
  <diagram id="OO9-59kYsQ-qKk6Iz3wn" name="Organizer compet">
    <mxGraphModel dx="1422" dy="1862" grid="1" gridSize="10" guides="1" tooltips="1" connect="1" arrows="1" fold="1" page="1" pageScale="1" pageWidth="850" pageHeight="1100" math="0" shadow="0">
      <root>
        <mxCell id="0" />
        <mxCell id="1" parent="0" />
        <mxCell id="KVr2cjoOQWCsmNOnClif-1" value="" style="edgeStyle=orthogonalEdgeStyle;rounded=0;orthogonalLoop=1;jettySize=auto;html=1;endArrow=block;endFill=0;" edge="1" parent="1" source="KVr2cjoOQWCsmNOnClif-2">
          <mxGeometry relative="1" as="geometry">
            <mxPoint x="240" y="110" as="targetPoint" />
          </mxGeometry>
        </mxCell>
        <mxCell id="KVr2cjoOQWCsmNOnClif-2" value="View app landing page" style="rounded=1;whiteSpace=wrap;html=1;fontSize=12;glass=0;strokeWidth=1;shadow=0;" vertex="1" parent="1">
          <mxGeometry x="10" y="80" width="130" height="60" as="geometry" />
        </mxCell>
        <mxCell id="WYFbcon9fFAZNBGl-ikz-2" value="" style="edgeStyle=orthogonalEdgeStyle;rounded=0;orthogonalLoop=1;jettySize=auto;html=1;endArrow=block;endFill=0;" edge="1" parent="1" source="KVr2cjoOQWCsmNOnClif-4" target="WYFbcon9fFAZNBGl-ikz-1">
          <mxGeometry relative="1" as="geometry" />
        </mxCell>
        <mxCell id="KVr2cjoOQWCsmNOnClif-4" value="Log in" style="whiteSpace=wrap;html=1;rounded=1;glass=0;strokeWidth=1;shadow=0;" vertex="1" parent="1">
          <mxGeometry x="240" y="80" width="120" height="60" as="geometry" />
        </mxCell>
        <mxCell id="KVr2cjoOQWCsmNOnClif-5" value="Add" style="edgeStyle=orthogonalEdgeStyle;rounded=0;orthogonalLoop=1;jettySize=auto;html=1;endArrow=block;endFill=0;" edge="1" parent="1" source="KVr2cjoOQWCsmNOnClif-9" target="KVr2cjoOQWCsmNOnClif-11">
          <mxGeometry relative="1" as="geometry" />
        </mxCell>
        <mxCell id="KVr2cjoOQWCsmNOnClif-6" value="" style="edgeStyle=orthogonalEdgeStyle;rounded=0;orthogonalLoop=1;jettySize=auto;html=1;endArrow=block;endFill=0;" edge="1" parent="1" source="KVr2cjoOQWCsmNOnClif-9" target="KVr2cjoOQWCsmNOnClif-14">
          <mxGeometry relative="1" as="geometry" />
        </mxCell>
        <mxCell id="KVr2cjoOQWCsmNOnClif-7" value="Update" style="edgeLabel;html=1;align=center;verticalAlign=middle;resizable=0;points=[];" vertex="1" connectable="0" parent="KVr2cjoOQWCsmNOnClif-6">
          <mxGeometry x="-0.2182" relative="1" as="geometry">
            <mxPoint as="offset" />
          </mxGeometry>
        </mxCell>
        <mxCell id="KVr2cjoOQWCsmNOnClif-8" value="Delete" style="edgeStyle=orthogonalEdgeStyle;rounded=0;orthogonalLoop=1;jettySize=auto;html=1;endArrow=block;endFill=0;" edge="1" parent="1" source="KVr2cjoOQWCsmNOnClif-9" target="KVr2cjoOQWCsmNOnClif-17">
          <mxGeometry relative="1" as="geometry" />
        </mxCell>
        <mxCell id="KVr2cjoOQWCsmNOnClif-9" value="Add&amp;nbsp; or update or delete Competition" style="rhombus;whiteSpace=wrap;html=1;rounded=1;glass=0;strokeWidth=1;shadow=0;" vertex="1" parent="1">
          <mxGeometry x="650" y="50" width="120" height="120" as="geometry" />
        </mxCell>
        <mxCell id="KVr2cjoOQWCsmNOnClif-10" value="" style="edgeStyle=orthogonalEdgeStyle;rounded=0;orthogonalLoop=1;jettySize=auto;html=1;endArrow=block;endFill=0;" edge="1" parent="1" source="KVr2cjoOQWCsmNOnClif-11" target="KVr2cjoOQWCsmNOnClif-12">
          <mxGeometry relative="1" as="geometry" />
        </mxCell>
        <mxCell id="KVr2cjoOQWCsmNOnClif-11" value="Fill Competition form" style="whiteSpace=wrap;html=1;rounded=1;glass=0;strokeWidth=1;shadow=0;" vertex="1" parent="1">
          <mxGeometry x="650" y="-120" width="120" height="60" as="geometry" />
        </mxCell>
        <mxCell id="KVr2cjoOQWCsmNOnClif-12" value="Deploy Competition" style="whiteSpace=wrap;html=1;rounded=1;glass=0;strokeWidth=1;shadow=0;" vertex="1" parent="1">
          <mxGeometry x="850" y="-120" width="120" height="60" as="geometry" />
        </mxCell>
        <mxCell id="KVr2cjoOQWCsmNOnClif-13" value="" style="edgeStyle=orthogonalEdgeStyle;rounded=0;orthogonalLoop=1;jettySize=auto;html=1;endArrow=block;endFill=0;" edge="1" parent="1" source="KVr2cjoOQWCsmNOnClif-14" target="KVr2cjoOQWCsmNOnClif-15">
          <mxGeometry relative="1" as="geometry" />
        </mxCell>
        <mxCell id="KVr2cjoOQWCsmNOnClif-14" value="Select one competition" style="whiteSpace=wrap;html=1;rounded=1;glass=0;strokeWidth=1;shadow=0;" vertex="1" parent="1">
          <mxGeometry x="880" y="80" width="120" height="60" as="geometry" />
        </mxCell>
        <mxCell id="KVr2cjoOQWCsmNOnClif-15" value="Update selected competition info" style="whiteSpace=wrap;html=1;rounded=1;glass=0;strokeWidth=1;shadow=0;" vertex="1" parent="1">
          <mxGeometry x="1080" y="80" width="120" height="60" as="geometry" />
        </mxCell>
        <mxCell id="KVr2cjoOQWCsmNOnClif-16" value="" style="edgeStyle=orthogonalEdgeStyle;rounded=0;orthogonalLoop=1;jettySize=auto;html=1;endArrow=block;endFill=0;" edge="1" parent="1" source="KVr2cjoOQWCsmNOnClif-17" target="KVr2cjoOQWCsmNOnClif-18">
          <mxGeometry relative="1" as="geometry" />
        </mxCell>
        <mxCell id="KVr2cjoOQWCsmNOnClif-17" value="Select competition" style="whiteSpace=wrap;html=1;rounded=1;glass=0;strokeWidth=1;shadow=0;" vertex="1" parent="1">
          <mxGeometry x="650" y="280" width="120" height="60" as="geometry" />
        </mxCell>
        <mxCell id="KVr2cjoOQWCsmNOnClif-18" value="Delete the select competition" style="whiteSpace=wrap;html=1;rounded=1;glass=0;strokeWidth=1;shadow=0;" vertex="1" parent="1">
          <mxGeometry x="850" y="280" width="120" height="60" as="geometry" />
        </mxCell>
        <mxCell id="WYFbcon9fFAZNBGl-ikz-3" style="edgeStyle=orthogonalEdgeStyle;rounded=0;orthogonalLoop=1;jettySize=auto;html=1;exitX=1;exitY=0.5;exitDx=0;exitDy=0;entryX=0;entryY=0.5;entryDx=0;entryDy=0;endArrow=block;endFill=0;" edge="1" parent="1" source="WYFbcon9fFAZNBGl-ikz-1" target="KVr2cjoOQWCsmNOnClif-9">
          <mxGeometry relative="1" as="geometry" />
        </mxCell>
        <mxCell id="WYFbcon9fFAZNBGl-ikz-1" value="Manage competition that organizer own" style="whiteSpace=wrap;html=1;rounded=1;glass=0;strokeWidth=1;shadow=0;" vertex="1" parent="1">
          <mxGeometry x="440" y="80" width="120" height="60" as="geometry" />
        </mxCell>
        <mxCell id="j_mqCmge6_5RfOiPycnx-1" value="Organizer manage competition" style="rounded=0;whiteSpace=wrap;html=1;" vertex="1" parent="1">
          <mxGeometry x="15" y="-210" width="120" height="60" as="geometry" />
        </mxCell>
      </root>
    </mxGraphModel>
  </diagram>
  <diagram id="ZTkhmT--2aAa7oE0TvwT" name="Organizer poster in compet">
    <mxGraphModel dx="1422" dy="1862" grid="1" gridSize="10" guides="1" tooltips="1" connect="1" arrows="1" fold="1" page="1" pageScale="1" pageWidth="850" pageHeight="1100" math="0" shadow="0">
      <root>
        <mxCell id="0" />
        <mxCell id="1" parent="0" />
        <mxCell id="7o04PKpYMALELH42O5es-1" value="" style="edgeStyle=orthogonalEdgeStyle;rounded=0;orthogonalLoop=1;jettySize=auto;html=1;endArrow=block;endFill=0;" edge="1" parent="1" source="7o04PKpYMALELH42O5es-2">
          <mxGeometry relative="1" as="geometry">
            <mxPoint x="240" y="110" as="targetPoint" />
          </mxGeometry>
        </mxCell>
        <mxCell id="7o04PKpYMALELH42O5es-2" value="View app landing page" style="rounded=1;whiteSpace=wrap;html=1;fontSize=12;glass=0;strokeWidth=1;shadow=0;" vertex="1" parent="1">
          <mxGeometry x="10" y="80" width="130" height="60" as="geometry" />
        </mxCell>
        <mxCell id="7o04PKpYMALELH42O5es-20" value="" style="edgeStyle=orthogonalEdgeStyle;rounded=0;orthogonalLoop=1;jettySize=auto;html=1;endArrow=block;endFill=0;" edge="1" parent="1" source="7o04PKpYMALELH42O5es-4" target="7o04PKpYMALELH42O5es-19">
          <mxGeometry relative="1" as="geometry" />
        </mxCell>
        <mxCell id="7o04PKpYMALELH42O5es-4" value="Log in" style="whiteSpace=wrap;html=1;rounded=1;glass=0;strokeWidth=1;shadow=0;" vertex="1" parent="1">
          <mxGeometry x="240" y="80" width="120" height="60" as="geometry" />
        </mxCell>
        <mxCell id="7o04PKpYMALELH42O5es-5" value="Add" style="edgeStyle=orthogonalEdgeStyle;rounded=0;orthogonalLoop=1;jettySize=auto;html=1;endArrow=block;endFill=0;" edge="1" parent="1" source="7o04PKpYMALELH42O5es-9" target="7o04PKpYMALELH42O5es-11">
          <mxGeometry relative="1" as="geometry" />
        </mxCell>
        <mxCell id="7o04PKpYMALELH42O5es-6" value="" style="edgeStyle=orthogonalEdgeStyle;rounded=0;orthogonalLoop=1;jettySize=auto;html=1;endArrow=block;endFill=0;" edge="1" parent="1" source="7o04PKpYMALELH42O5es-9" target="7o04PKpYMALELH42O5es-14">
          <mxGeometry relative="1" as="geometry" />
        </mxCell>
        <mxCell id="7o04PKpYMALELH42O5es-7" value="Update" style="edgeLabel;html=1;align=center;verticalAlign=middle;resizable=0;points=[];" vertex="1" connectable="0" parent="7o04PKpYMALELH42O5es-6">
          <mxGeometry x="-0.2182" relative="1" as="geometry">
            <mxPoint as="offset" />
          </mxGeometry>
        </mxCell>
        <mxCell id="7o04PKpYMALELH42O5es-8" value="Delete" style="edgeStyle=orthogonalEdgeStyle;rounded=0;orthogonalLoop=1;jettySize=auto;html=1;endArrow=block;endFill=0;" edge="1" parent="1" source="7o04PKpYMALELH42O5es-9" target="7o04PKpYMALELH42O5es-17">
          <mxGeometry relative="1" as="geometry" />
        </mxCell>
        <mxCell id="7o04PKpYMALELH42O5es-9" value="Add&amp;nbsp; or update or delete Poster" style="rhombus;whiteSpace=wrap;html=1;rounded=1;glass=0;strokeWidth=1;shadow=0;" vertex="1" parent="1">
          <mxGeometry x="640" y="50" width="120" height="120" as="geometry" />
        </mxCell>
        <mxCell id="7o04PKpYMALELH42O5es-10" value="" style="edgeStyle=orthogonalEdgeStyle;rounded=0;orthogonalLoop=1;jettySize=auto;html=1;endArrow=block;endFill=0;" edge="1" parent="1" source="7o04PKpYMALELH42O5es-11" target="7o04PKpYMALELH42O5es-12">
          <mxGeometry relative="1" as="geometry" />
        </mxCell>
        <mxCell id="7o04PKpYMALELH42O5es-11" value="Fill poster info" style="whiteSpace=wrap;html=1;rounded=1;glass=0;strokeWidth=1;shadow=0;" vertex="1" parent="1">
          <mxGeometry x="640" y="-120" width="120" height="60" as="geometry" />
        </mxCell>
        <mxCell id="7o04PKpYMALELH42O5es-12" value="Add poster on competition" style="whiteSpace=wrap;html=1;rounded=1;glass=0;strokeWidth=1;shadow=0;" vertex="1" parent="1">
          <mxGeometry x="840" y="-120" width="120" height="60" as="geometry" />
        </mxCell>
        <mxCell id="7o04PKpYMALELH42O5es-13" value="" style="edgeStyle=orthogonalEdgeStyle;rounded=0;orthogonalLoop=1;jettySize=auto;html=1;endArrow=block;endFill=0;" edge="1" parent="1" source="7o04PKpYMALELH42O5es-14" target="7o04PKpYMALELH42O5es-15">
          <mxGeometry relative="1" as="geometry" />
        </mxCell>
        <mxCell id="7o04PKpYMALELH42O5es-14" value="Select one poster" style="whiteSpace=wrap;html=1;rounded=1;glass=0;strokeWidth=1;shadow=0;" vertex="1" parent="1">
          <mxGeometry x="870" y="80" width="120" height="60" as="geometry" />
        </mxCell>
        <mxCell id="7o04PKpYMALELH42O5es-15" value="Update selected poster info" style="whiteSpace=wrap;html=1;rounded=1;glass=0;strokeWidth=1;shadow=0;" vertex="1" parent="1">
          <mxGeometry x="1070" y="80" width="120" height="60" as="geometry" />
        </mxCell>
        <mxCell id="7o04PKpYMALELH42O5es-16" value="" style="edgeStyle=orthogonalEdgeStyle;rounded=0;orthogonalLoop=1;jettySize=auto;html=1;endArrow=block;endFill=0;" edge="1" parent="1" source="7o04PKpYMALELH42O5es-17" target="7o04PKpYMALELH42O5es-18">
          <mxGeometry relative="1" as="geometry" />
        </mxCell>
        <mxCell id="7o04PKpYMALELH42O5es-17" value="Select posters" style="whiteSpace=wrap;html=1;rounded=1;glass=0;strokeWidth=1;shadow=0;" vertex="1" parent="1">
          <mxGeometry x="640" y="280" width="120" height="60" as="geometry" />
        </mxCell>
        <mxCell id="7o04PKpYMALELH42O5es-18" value="Delete the select posters from competition" style="whiteSpace=wrap;html=1;rounded=1;glass=0;strokeWidth=1;shadow=0;" vertex="1" parent="1">
          <mxGeometry x="840" y="280" width="120" height="60" as="geometry" />
        </mxCell>
        <mxCell id="3Zk5cR0ad3q-siKPvSJa-1" style="edgeStyle=orthogonalEdgeStyle;rounded=0;orthogonalLoop=1;jettySize=auto;html=1;exitX=1;exitY=0.5;exitDx=0;exitDy=0;entryX=0;entryY=0.5;entryDx=0;entryDy=0;endArrow=block;endFill=0;" edge="1" parent="1" source="7o04PKpYMALELH42O5es-19" target="7o04PKpYMALELH42O5es-9">
          <mxGeometry relative="1" as="geometry" />
        </mxCell>
        <mxCell id="7o04PKpYMALELH42O5es-19" value="Manage poster in competition that organizer own" style="whiteSpace=wrap;html=1;rounded=1;glass=0;strokeWidth=1;shadow=0;" vertex="1" parent="1">
          <mxGeometry x="440" y="80" width="120" height="60" as="geometry" />
        </mxCell>
        <mxCell id="u2xatnDfz1IIP9sEsYXT-1" value="Organizer manage posters in competition" style="rounded=0;whiteSpace=wrap;html=1;" vertex="1" parent="1">
          <mxGeometry x="15" y="-210" width="120" height="60" as="geometry" />
        </mxCell>
      </root>
    </mxGraphModel>
  </diagram>
  <diagram id="KVc66PMtZfRGvtaQa6y5" name="Organizer member">
    <mxGraphModel dx="1422" dy="1862" grid="1" gridSize="10" guides="1" tooltips="1" connect="1" arrows="1" fold="1" page="1" pageScale="1" pageWidth="850" pageHeight="1100" math="0" shadow="0">
      <root>
        <mxCell id="0" />
        <mxCell id="1" parent="0" />
        <mxCell id="yrYf4fyxYhJcbz0bXlBo-1" value="" style="edgeStyle=orthogonalEdgeStyle;rounded=0;orthogonalLoop=1;jettySize=auto;html=1;endArrow=block;endFill=0;" edge="1" parent="1" source="yrYf4fyxYhJcbz0bXlBo-2">
          <mxGeometry relative="1" as="geometry">
            <mxPoint x="240" y="110" as="targetPoint" />
          </mxGeometry>
        </mxCell>
        <mxCell id="yrYf4fyxYhJcbz0bXlBo-2" value="View app landing page" style="rounded=1;whiteSpace=wrap;html=1;fontSize=12;glass=0;strokeWidth=1;shadow=0;" vertex="1" parent="1">
          <mxGeometry x="10" y="80" width="130" height="60" as="geometry" />
        </mxCell>
        <mxCell id="yrYf4fyxYhJcbz0bXlBo-3" value="" style="edgeStyle=orthogonalEdgeStyle;rounded=0;orthogonalLoop=1;jettySize=auto;html=1;endArrow=block;endFill=0;" edge="1" parent="1" source="yrYf4fyxYhJcbz0bXlBo-4" target="yrYf4fyxYhJcbz0bXlBo-20">
          <mxGeometry relative="1" as="geometry" />
        </mxCell>
        <mxCell id="yrYf4fyxYhJcbz0bXlBo-4" value="Log in" style="whiteSpace=wrap;html=1;rounded=1;glass=0;strokeWidth=1;shadow=0;" vertex="1" parent="1">
          <mxGeometry x="240" y="80" width="120" height="60" as="geometry" />
        </mxCell>
        <mxCell id="yrYf4fyxYhJcbz0bXlBo-5" value="Add" style="edgeStyle=orthogonalEdgeStyle;rounded=0;orthogonalLoop=1;jettySize=auto;html=1;endArrow=block;endFill=0;" edge="1" parent="1" source="yrYf4fyxYhJcbz0bXlBo-9" target="yrYf4fyxYhJcbz0bXlBo-11">
          <mxGeometry relative="1" as="geometry" />
        </mxCell>
        <mxCell id="yrYf4fyxYhJcbz0bXlBo-6" value="" style="edgeStyle=orthogonalEdgeStyle;rounded=0;orthogonalLoop=1;jettySize=auto;html=1;endArrow=block;endFill=0;" edge="1" parent="1" source="yrYf4fyxYhJcbz0bXlBo-9" target="yrYf4fyxYhJcbz0bXlBo-14">
          <mxGeometry relative="1" as="geometry" />
        </mxCell>
        <mxCell id="yrYf4fyxYhJcbz0bXlBo-7" value="Update" style="edgeLabel;html=1;align=center;verticalAlign=middle;resizable=0;points=[];" vertex="1" connectable="0" parent="yrYf4fyxYhJcbz0bXlBo-6">
          <mxGeometry x="-0.2182" relative="1" as="geometry">
            <mxPoint as="offset" />
          </mxGeometry>
        </mxCell>
        <mxCell id="yrYf4fyxYhJcbz0bXlBo-8" value="Delete" style="edgeStyle=orthogonalEdgeStyle;rounded=0;orthogonalLoop=1;jettySize=auto;html=1;endArrow=block;endFill=0;" edge="1" parent="1" source="yrYf4fyxYhJcbz0bXlBo-9" target="yrYf4fyxYhJcbz0bXlBo-17">
          <mxGeometry relative="1" as="geometry" />
        </mxCell>
        <mxCell id="yrYf4fyxYhJcbz0bXlBo-9" value="Add&amp;nbsp; or update or delete users" style="rhombus;whiteSpace=wrap;html=1;rounded=1;glass=0;strokeWidth=1;shadow=0;" vertex="1" parent="1">
          <mxGeometry x="640" y="50" width="120" height="120" as="geometry" />
        </mxCell>
        <mxCell id="yrYf4fyxYhJcbz0bXlBo-10" value="" style="edgeStyle=orthogonalEdgeStyle;rounded=0;orthogonalLoop=1;jettySize=auto;html=1;endArrow=block;endFill=0;" edge="1" parent="1" source="yrYf4fyxYhJcbz0bXlBo-11" target="yrYf4fyxYhJcbz0bXlBo-12">
          <mxGeometry relative="1" as="geometry" />
        </mxCell>
        <mxCell id="yrYf4fyxYhJcbz0bXlBo-11" value="Fill user name" style="whiteSpace=wrap;html=1;rounded=1;glass=0;strokeWidth=1;shadow=0;" vertex="1" parent="1">
          <mxGeometry x="640" y="-120" width="120" height="60" as="geometry" />
        </mxCell>
        <mxCell id="yrYf4fyxYhJcbz0bXlBo-12" value="Add users to competition" style="whiteSpace=wrap;html=1;rounded=1;glass=0;strokeWidth=1;shadow=0;" vertex="1" parent="1">
          <mxGeometry x="840" y="-120" width="120" height="60" as="geometry" />
        </mxCell>
        <mxCell id="yrYf4fyxYhJcbz0bXlBo-13" value="" style="edgeStyle=orthogonalEdgeStyle;rounded=0;orthogonalLoop=1;jettySize=auto;html=1;endArrow=block;endFill=0;" edge="1" parent="1" source="yrYf4fyxYhJcbz0bXlBo-14" target="yrYf4fyxYhJcbz0bXlBo-15">
          <mxGeometry relative="1" as="geometry" />
        </mxCell>
        <mxCell id="yrYf4fyxYhJcbz0bXlBo-14" value="Select users" style="whiteSpace=wrap;html=1;rounded=1;glass=0;strokeWidth=1;shadow=0;" vertex="1" parent="1">
          <mxGeometry x="870" y="80" width="120" height="60" as="geometry" />
        </mxCell>
        <mxCell id="yrYf4fyxYhJcbz0bXlBo-15" value="Update selected users" style="whiteSpace=wrap;html=1;rounded=1;glass=0;strokeWidth=1;shadow=0;" vertex="1" parent="1">
          <mxGeometry x="1070" y="80" width="120" height="60" as="geometry" />
        </mxCell>
        <mxCell id="yrYf4fyxYhJcbz0bXlBo-16" value="" style="edgeStyle=orthogonalEdgeStyle;rounded=0;orthogonalLoop=1;jettySize=auto;html=1;endArrow=block;endFill=0;" edge="1" parent="1" source="yrYf4fyxYhJcbz0bXlBo-17" target="yrYf4fyxYhJcbz0bXlBo-18">
          <mxGeometry relative="1" as="geometry" />
        </mxCell>
        <mxCell id="yrYf4fyxYhJcbz0bXlBo-17" value="Select users" style="whiteSpace=wrap;html=1;rounded=1;glass=0;strokeWidth=1;shadow=0;" vertex="1" parent="1">
          <mxGeometry x="640" y="280" width="120" height="60" as="geometry" />
        </mxCell>
        <mxCell id="yrYf4fyxYhJcbz0bXlBo-18" value="Delete the select users from competition" style="whiteSpace=wrap;html=1;rounded=1;glass=0;strokeWidth=1;shadow=0;" vertex="1" parent="1">
          <mxGeometry x="840" y="280" width="120" height="60" as="geometry" />
        </mxCell>
        <mxCell id="yrYf4fyxYhJcbz0bXlBo-19" style="edgeStyle=orthogonalEdgeStyle;rounded=0;orthogonalLoop=1;jettySize=auto;html=1;exitX=1;exitY=0.5;exitDx=0;exitDy=0;entryX=0;entryY=0.5;entryDx=0;entryDy=0;endArrow=block;endFill=0;" edge="1" parent="1" source="yrYf4fyxYhJcbz0bXlBo-20" target="yrYf4fyxYhJcbz0bXlBo-9">
          <mxGeometry relative="1" as="geometry" />
        </mxCell>
        <mxCell id="yrYf4fyxYhJcbz0bXlBo-20" value="Manage other users in competition that organizer own" style="whiteSpace=wrap;html=1;rounded=1;glass=0;strokeWidth=1;shadow=0;" vertex="1" parent="1">
          <mxGeometry x="440" y="80" width="120" height="60" as="geometry" />
        </mxCell>
        <mxCell id="SJPWRF-HN1rlkRA75krA-1" value="Organizer manage users in competition" style="rounded=0;whiteSpace=wrap;html=1;" vertex="1" parent="1">
          <mxGeometry x="15" y="-210" width="120" height="60" as="geometry" />
        </mxCell>
      </root>
    </mxGraphModel>
  </diagram>
  <diagram id="zmJbB3vDHV8bvJACiBSj" name="Guest view poster&amp;compet">
    <mxGraphModel dx="1422" dy="1862" grid="1" gridSize="10" guides="1" tooltips="1" connect="1" arrows="1" fold="1" page="1" pageScale="1" pageWidth="850" pageHeight="1100" math="0" shadow="0">
      <root>
        <mxCell id="0" />
        <mxCell id="1" parent="0" />
        <mxCell id="kHxguA2Ns4Rh-1oTyRki-1" value="" style="edgeStyle=orthogonalEdgeStyle;rounded=0;orthogonalLoop=1;jettySize=auto;html=1;endArrow=block;endFill=0;exitX=1;exitY=0.5;exitDx=0;exitDy=0;entryX=0;entryY=0.5;entryDx=0;entryDy=0;" edge="1" parent="1" source="kHxguA2Ns4Rh-1oTyRki-14" target="kHxguA2Ns4Rh-1oTyRki-12">
          <mxGeometry relative="1" as="geometry">
            <mxPoint x="140" y="110" as="sourcePoint" />
            <mxPoint x="240" y="110" as="targetPoint" />
          </mxGeometry>
        </mxCell>
        <mxCell id="kHxguA2Ns4Rh-1oTyRki-16" value="" style="edgeStyle=orthogonalEdgeStyle;rounded=0;orthogonalLoop=1;jettySize=auto;html=1;endArrow=block;endFill=0;" edge="1" parent="1" source="kHxguA2Ns4Rh-1oTyRki-5" target="kHxguA2Ns4Rh-1oTyRki-15">
          <mxGeometry relative="1" as="geometry" />
        </mxCell>
        <mxCell id="kHxguA2Ns4Rh-1oTyRki-5" value="Choose poster" style="whiteSpace=wrap;html=1;rounded=1;" vertex="1" parent="1">
          <mxGeometry x="457.5" y="80" width="120" height="60" as="geometry" />
        </mxCell>
        <mxCell id="kHxguA2Ns4Rh-1oTyRki-11" value="" style="edgeStyle=orthogonalEdgeStyle;rounded=0;orthogonalLoop=1;jettySize=auto;html=1;endArrow=block;endFill=0;" edge="1" parent="1" source="kHxguA2Ns4Rh-1oTyRki-12">
          <mxGeometry relative="1" as="geometry">
            <mxPoint x="460" y="110" as="targetPoint" />
          </mxGeometry>
        </mxCell>
        <mxCell id="kHxguA2Ns4Rh-1oTyRki-12" value="View competition" style="whiteSpace=wrap;html=1;rounded=1;glass=0;strokeWidth=1;shadow=0;" vertex="1" parent="1">
          <mxGeometry x="240" y="80" width="120" height="60" as="geometry" />
        </mxCell>
        <mxCell id="kHxguA2Ns4Rh-1oTyRki-14" value="View app landing page" style="rounded=1;whiteSpace=wrap;html=1;fontSize=12;glass=0;strokeWidth=1;shadow=0;" vertex="1" parent="1">
          <mxGeometry x="10" y="80" width="130" height="60" as="geometry" />
        </mxCell>
        <mxCell id="kHxguA2Ns4Rh-1oTyRki-15" value="view poster detail" style="whiteSpace=wrap;html=1;rounded=1;" vertex="1" parent="1">
          <mxGeometry x="657.5" y="80" width="120" height="60" as="geometry" />
        </mxCell>
        <mxCell id="u5BLsdpYYqN4lZGs6e-4-1" value="Guest view poster &amp;amp; competition" style="rounded=0;whiteSpace=wrap;html=1;" vertex="1" parent="1">
          <mxGeometry x="15" y="-210" width="120" height="60" as="geometry" />
        </mxCell>
      </root>
    </mxGraphModel>
  </diagram>
</mxfile>
